<svg xmlns="http://www.w3.org/2000/svg" viewBox="0 0 64 64" fill="none">
  <rect width="64" height="64" rx="18" fill="#0F172A"/>
  <path d="M18 22.5C18 18.9101 20.9101 16 24.5 16H39.5C43.0899 16 46 18.9101 46 22.5V41.5C46 45.0899 43.0899 48 39.5 48H24.5C20.9101 48 18 45.0899 18 41.5V22.5Z" fill="#F8FAFC"/>
  <path d="M25 25.5C25 24.1193 26.1193 23 27.5 23H36.5C37.8807 23 39 24.1193 39 25.5V28.5C39 29.8807 37.8807 31 36.5 31H27.5C26.1193 31 25 29.8807 25 28.5V25.5Z" fill="#C4E3E5"/>
  <path d="M25 36.5C25 35.1193 26.1193 34 27.5 34H33.5C34.8807 34 36 35.1193 36 36.5V39.5C36 40.8807 34.8807 42 33.5 42H27.5C26.1193 42 25 40.8807 25 39.5V36.5Z" fill="#0F172A"/>
  <circle cx="40.5" cy="38" r="3.5" fill="#0F172A"/>
</svg>
